<svg xmlns="http://www.w3.org/2000/svg" version="1.1" xmlns:xlink="http://www.w3.org/1999/xlink" xmlns:svgjs="http://svgjs.dev/svgjs" width="1500" height="939" viewBox="0 0 1500 939"><g transform="matrix(1,0,0,1,-0.9090909090909918,-1.5145161290323017)"><svg viewBox="0 0 396 248" data-background-color="#ffffff" preserveAspectRatio="xMidYMid meet" height="939" width="1500" xmlns="http://www.w3.org/2000/svg" xmlns:xlink="http://www.w3.org/1999/xlink"><g id="tight-bounds" transform="matrix(1,0,0,1,0.2400000000000091,0.4000000000000057)"><svg viewBox="0 0 395.52 247.2" height="247.2" width="395.52"><g><svg></svg></g><g><svg viewBox="0 0 395.52 247.2" height="247.2" width="395.52"><g transform="matrix(1,0,0,1,75.54432,106.07511783524413)"><svg viewBox="0 0 244.43135999999998 35.04976432951173" height="35.04976432951173" width="244.43135999999998"><g><svg viewBox="0 0 311.95423037087613 44.73207634279587" height="35.04976432951173" width="244.43135999999998"><g><rect width="4.013915231936436" height="44.73207634279587" x="53.001323641723914" y="0" fill="#111111" opacity="1" stroke-width="0" stroke="transparent" fill-opacity="1" class="rect-yte-0" data-fill-palette-color="primary" rx="1%" id="yte-0" data-palette-color="#111111"></rect></g><g transform="matrix(1,0,0,1,67.52287037087615,0.11127382174824518)"><svg viewBox="0 0 244.43135999999998 44.50952869929938" height="44.50952869929938" width="244.43135999999998"><g id="textblocktransform"><svg viewBox="0 0 244.43135999999998 44.50952869929938" height="44.50952869929938" width="244.43135999999998" id="textblock"><g><svg viewBox="0 0 244.43135999999998 44.50952869929938" height="44.50952869929938" width="244.43135999999998"><g transform="matrix(1,0,0,1,0,0)"><svg width="244.43135999999998" viewBox="0.9 -33.28 237.71 43.290850697216996" height="44.50952869929938" data-palette-color="#111111"><path d="M7.06-32.03Q7.89-32.03 8.24-31.65 8.59-31.27 8.59-30.37L8.59-30.37 8.59-19.07Q11.74-23.1 16.33-23.1L16.33-23.1Q19.36-23.1 21.75-21.67 24.15-20.24 25.51-17.57 26.88-14.89 26.88-11.28L26.88-11.28Q26.88-7.67 25.51-4.99 24.15-2.32 21.75-0.89 19.36 0.54 16.33 0.54L16.33 0.54Q13.94 0.54 11.91-0.54 9.89-1.61 8.35-3.61L8.35-3.61 8.35-1.66Q8.35-0.76 8-0.38 7.64 0 6.81 0L6.81 0 2.93 0Q2.1 0 1.75-0.38 1.39-0.76 1.39-1.66L1.39-1.66Q1.39-2.56 1.75-2.94 2.1-3.32 2.93-3.32L2.93-3.32 4.93-3.32 4.93-28.71 2.44-28.71Q1.61-28.71 1.26-29.09 0.9-29.47 0.9-30.37L0.9-30.37Q0.9-31.27 1.26-31.65 1.61-32.03 2.44-32.03L2.44-32.03 7.06-32.03ZM16.09-19.48Q13.92-19.48 12.22-18.51 10.52-17.53 9.56-15.67 8.59-13.82 8.59-11.28L8.59-11.28Q8.59-8.74 9.56-6.88 10.52-5.03 12.22-4.05 13.92-3.08 16.09-3.08L16.09-3.08Q18.26-3.08 19.82-4.11 21.39-5.15 22.2-7.01 23.02-8.86 23.02-11.28L23.02-11.28Q23.02-13.7 22.2-15.55 21.39-17.41 19.82-18.44 18.26-19.48 16.09-19.48L16.09-19.48ZM52.44-23.1Q54.34-23.1 56-22.12L56-22.12Q56.98-21.53 56.98-20.61L56.98-20.61Q56.98-20.17 56.76-19.58L56.76-19.58Q56.25-18.19 55.34-18.19L55.34-18.19Q54.98-18.19 54.66-18.38L54.66-18.38Q53.46-19.04 52.1-19.04L52.1-19.04Q49.9-19.04 47.68-17.52 45.46-15.99 44.03-13.45 42.6-10.91 42.6-8.06L42.6-8.06 42.6-3.32 50.83-3.32Q51.66-3.32 52.01-2.94 52.37-2.56 52.37-1.66L52.37-1.66Q52.37-0.76 52.01-0.38 51.66 0 50.83 0L50.83 0 35.1 0Q34.27 0 33.92-0.38 33.57-0.76 33.57-1.66L33.57-1.66Q33.57-2.56 33.92-2.94 34.27-3.32 35.1-3.32L35.1-3.32 38.94-3.32 38.94-19.24 35.84-19.24Q35.01-19.24 34.65-19.62 34.3-20 34.3-20.9L34.3-20.9Q34.3-21.8 34.65-22.18 35.01-22.56 35.84-22.56L35.84-22.56 40.82-22.56Q41.65-22.56 42-22.18 42.36-21.8 42.36-20.9L42.36-20.9 42.36-15.97Q43.53-18.12 45.19-19.73 46.85-21.34 48.73-22.22 50.61-23.1 52.44-23.1L52.44-23.1ZM75.83-22.56Q76.66-22.56 77.01-22.18 77.36-21.8 77.36-20.9L77.36-20.9 77.36-3.32 85.2-3.32Q86.03-3.32 86.38-2.94 86.74-2.56 86.74-1.66L86.74-1.66Q86.74-0.76 86.38-0.38 86.03 0 85.2 0L85.2 0 66.06 0Q65.23 0 64.88-0.38 64.52-0.76 64.52-1.66L64.52-1.66Q64.52-2.56 64.88-2.94 65.23-3.32 66.06-3.32L66.06-3.32 73.7-3.32 73.7-19.24 67.52-19.24Q66.69-19.24 66.34-19.62 65.99-20 65.99-20.9L65.99-20.9Q65.99-21.8 66.34-22.18 66.69-22.56 67.52-22.56L67.52-22.56 75.83-22.56ZM75.04-33.28Q76.39-33.28 76.87-32.92 77.36-32.57 77.36-31.69L77.36-31.69 77.36-28.52Q77.36-27.64 76.87-27.28 76.39-26.93 75.04-26.93L75.04-26.93Q73.7-26.93 73.21-27.28 72.72-27.64 72.72-28.52L72.72-28.52 72.72-31.69Q72.72-32.57 73.21-32.92 73.7-33.28 75.04-33.28L75.04-33.28ZM105.14-23.1Q108.68-23.1 111.19-21.67 113.69-20.24 115.03-17.71 116.37-15.19 116.57-11.89L116.57-11.89Q116.57-11.06 116.22-10.72 115.86-10.38 115.03-10.38L115.03-10.38 97.36-10.38Q97.53-6.74 99.52-4.87 101.51-3 105.14-3L105.14-3Q107.39-3 109.59-3.58 111.78-4.15 113.44-5.1L113.44-5.1Q113.86-5.32 114.2-5.32L114.2-5.32Q115.06-5.32 115.59-4.03L115.59-4.03Q115.81-3.52 115.81-3.1L115.81-3.1Q115.81-2.12 114.74-1.59L114.74-1.59Q112.86-0.63 110.3-0.05 107.73 0.54 105.14 0.54L105.14 0.54Q101.46 0.54 98.85-0.88 96.23-2.29 94.87-4.96 93.5-7.62 93.5-11.28L93.5-11.28Q93.5-14.77 94.99-17.46 96.48-20.14 99.11-21.62 101.75-23.1 105.14-23.1L105.14-23.1ZM105.14-19.56Q102.14-19.56 100.18-18.03 98.21-16.5 97.6-13.79L97.6-13.79 112.52-13.79Q112-16.6 110.16-18.08 108.32-19.56 105.14-19.56L105.14-19.56ZM139.44-32.15Q142.71-32.15 145.94-30.91L145.94-30.91Q147.11-30.47 147.11-29.3L147.11-29.3Q147.11-29.03 147.04-28.66L147.04-28.66Q146.69-27.27 145.82-27.27L145.82-27.27Q145.55-27.27 145.23-27.39L145.23-27.39Q142.13-28.59 139.44-28.59L139.44-28.59Q134.51-28.59 134.51-23.29L134.51-23.29 134.51-20.61 142.96-20.61Q143.79-20.61 144.14-20.23 144.5-19.85 144.5-18.95L144.5-18.95Q144.5-18.04 144.14-17.66 143.79-17.29 142.96-17.29L142.96-17.29 134.51-17.29 134.51-3.32 142.96-3.32Q143.79-3.32 144.14-2.94 144.5-2.56 144.5-1.66L144.5-1.66Q144.5-0.76 144.14-0.38 143.79 0 142.96 0L142.96 0 126.02 0Q125.19 0 124.83-0.38 124.48-0.76 124.48-1.66L124.48-1.66Q124.48-2.56 124.83-2.94 125.19-3.32 126.02-3.32L126.02-3.32 130.85-3.32 130.85-17.29 126.02-17.29Q125.19-17.29 124.83-17.66 124.48-18.04 124.48-18.95L124.48-18.95Q124.48-19.85 124.83-20.23 125.19-20.61 126.02-20.61L126.02-20.61 130.85-20.61 130.85-23.61Q130.85-27.64 133.11-29.9 135.37-32.15 139.44-32.15L139.44-32.15ZM164.88-7.32Q166.64-7.32 167.41-6.97 168.18-6.62 168.18-5.79L168.18-5.79 168.18-1.29Q168.18-0.46 167.41-0.11 166.64 0.24 164.88 0.24L164.88 0.24Q163.12 0.24 162.35-0.11 161.58-0.46 161.58-1.29L161.58-1.29 161.58-5.79Q161.58-6.62 162.35-6.97 163.12-7.32 164.88-7.32L164.88-7.32ZM195.49-32.03Q196.32-32.03 196.68-31.65 197.03-31.27 197.03-30.37L197.03-30.37 197.03-3.32 204.87-3.32Q205.7-3.32 206.05-2.94 206.41-2.56 206.41-1.66L206.41-1.66Q206.41-0.76 206.05-0.38 205.7 0 204.87 0L204.87 0 185.73 0Q184.9 0 184.54-0.38 184.19-0.76 184.19-1.66L184.19-1.66Q184.19-2.56 184.54-2.94 184.9-3.32 185.73-3.32L185.73-3.32 193.37-3.32 193.37-28.71 186.7-28.71Q185.87-28.71 185.52-29.09 185.17-29.47 185.17-30.37L185.17-30.37Q185.17-31.27 185.52-31.65 185.87-32.03 186.7-32.03L186.7-32.03 195.49-32.03ZM237.07-22.56Q237.9-22.56 238.25-22.18 238.61-21.8 238.61-20.9L238.61-20.9Q238.61-20 238.25-19.62 237.9-19.24 237.07-19.24L237.07-19.24 235.55-19.24 225.57 1.22Q223.98 4.47 222.47 6.32 220.95 8.18 219.06 9.05 217.17 9.91 214.46 10.01L214.46 10.01Q213.61 10.03 213.14 9.58 212.68 9.13 212.68 7.98L212.68 7.98Q212.68 6.4 213.97 6.32L213.97 6.32Q216.32 6.2 217.69 5.54 219.07 4.88 220.23 3.28 221.39 1.68 223.08-1.71L223.08-1.71 214.14-19.24 212.6-19.24Q211.77-19.24 211.42-19.62 211.07-20 211.07-20.9L211.07-20.9Q211.07-21.8 211.42-22.18 211.77-22.56 212.6-22.56L212.6-22.56 221.25-22.56Q222.08-22.56 222.43-22.18 222.79-21.8 222.79-20.9L222.79-20.9Q222.79-20 222.43-19.62 222.08-19.24 221.25-19.24L221.25-19.24 218.12-19.24 225.01-5.52 231.57-19.24 229.4-19.24Q228.57-19.24 228.22-19.62 227.86-20 227.86-20.9L227.86-20.9Q227.86-21.8 228.22-22.18 228.57-22.56 229.4-22.56L229.4-22.56 237.07-22.56Z" opacity="1" transform="matrix(1,0,0,1,0,0)" fill="#111111" class="wordmark-text-0" data-fill-palette-color="primary" id="text-0"></path></svg></g></svg></g></svg></g></svg></g><g transform="matrix(1,0,0,1,0,0.11127382174824518)"><svg viewBox="0 0 42.49369214450812 44.50952869929938" height="44.50952869929938" width="42.49369214450812"><g><svg version="1.0" xmlns="http://www.w3.org/2000/svg" xmlns:xlink="http://www.w3.org/1999/xlink" x="0" y="0" viewBox="0 0 95.471 100" enable-background="new 0 0 95.471 100" xml:space="preserve" id="icon-0" width="42.49369214450812" height="44.50952869929938" class="icon-icon-0" data-fill-palette-color="accent"><path d="M47.735 0C47.652 2.825 45.997 13.412 27.936 30.934 10.554 47.797 2.439 49.824 0 50 2.439 50.178 10.554 52.204 27.936 69.066 45.997 86.589 47.652 97.177 47.735 100 47.818 97.177 49.474 86.589 67.533 69.066 84.917 52.204 93.031 50.178 95.471 50 93.032 49.824 84.917 47.797 67.533 30.934 49.475 13.412 47.819 2.825 47.735 0" fill="#111111" data-fill-palette-color="accent"></path></svg></g></svg></g></svg></g></svg></g><path d="M179.744 100.075L179.744 36.821 6.186 36.821 6.186 210.379 179.744 210.379 179.744 147.125 176.599 147.125 176.599 207.234 9.331 207.234 9.331 39.966 176.599 39.966 176.599 100.075Z" fill="#636365" stroke="transparent" data-fill-palette-color="tertiary"></path></svg></g><defs></defs></svg><rect width="395.52" height="247.2" fill="none" stroke="none" visibility="hidden"></rect></g></svg></g></svg>